<svg width="35" height="55" viewBox="0 0 35 55" fill="none" xmlns="http://www.w3.org/2000/svg">
<path d="M1.60236 32.7344C1.81452 33.659 -0.922947 35.7597 0.329377 43.9888C1.5817 52.2179 8.01913 54.719 17.9907 54.719C27.9623 54.719 34.2221 48.1291 34.8629 41.5984C35.5037 35.0677 33.8509 23.4874 30.8806 20.5283C28.759 18.494 28.9712 16.2747 29.8198 14.0554C30.2442 13.1307 30.6684 12.206 31.0927 11.0964C30.8806 11.0964 30.8806 10.9115 30.6685 10.9115C30.032 11.8362 29.1834 12.7608 28.759 13.8705C27.4861 16.6446 27.4861 19.4187 28.5469 22.1928C28.9712 23.3024 28.759 24.2271 28.1225 25.1518C27.486 26.0765 26.2131 26.4464 24.9401 26.0765C23.8793 25.7066 23.2428 24.9669 23.455 24.0422C23.8793 22.3777 24.5158 20.7133 24.9401 19.2337C25.5766 17.3843 26.4252 15.5349 26.4252 13.6855C26.6374 9.43193 24.7279 5.73313 21.7577 2.40422C20.909 1.47952 19.8482 0.739759 18.9996 0L18.7874 0.184941C18.9996 0.55482 19.4239 1.10964 19.6361 1.47952C20.4847 2.95904 21.5455 4.25361 22.182 5.91807C23.2428 8.32229 23.0306 10.9115 21.5455 13.1307C20.6968 14.6102 19.2117 15.1651 17.5144 14.7952C15.3928 14.2404 14.1199 12.7608 14.7564 10.5416C15.1807 8.87711 15.8172 7.21266 16.4536 5.73314C14.9685 7.02772 13.6956 8.50723 12.6348 10.1717C10.301 14.2404 10.5131 18.309 12.2104 22.3777C13.0591 24.4121 13.9077 26.6313 14.5442 28.6657C14.9685 30.5151 14.7564 32.3645 12.8469 33.4741C10.7253 34.7687 9.6645 34.2139 9.24017 32.3645C9.02801 31.6247 8.81584 30.7 9.028 29.9603C9.45232 27.741 8.81588 25.8916 7.54291 24.0422C6.48211 22.5627 5.42129 21.0831 5.20912 19.2337C4.99696 19.6036 4.5726 19.7886 4.5726 20.1584C4.14828 21.638 4.7848 22.7476 5.20912 24.0422C5.63345 25.1518 6.05777 26.4464 6.26993 27.556C6.48209 28.6657 5.63346 29.4054 4.36049 29.4054C3.08752 29.4054 2.23888 28.8506 2.23888 27.556C2.23888 26.6313 2.66316 25.5217 2.66316 24.597C0.753712 25.7066 -0.0949448 27.0012 0.329377 29.0356C0.7537 30.3301 1.3902 31.4398 1.60236 32.7344Z" fill="#E93E3A"/>
</svg>
