<svg width="48" height="48" viewBox="0 0 48 48" fill="none" xmlns="http://www.w3.org/2000/svg">
<rect width="48" height="48" rx="24" fill="#393A53"/>
<path d="M18.562 36.531L36.531 18.562C38.4897 16.6033 38.4897 13.4278 36.531 11.469C34.5722 9.51032 31.3967 9.51032 29.438 11.469L11.469 29.438C9.51032 31.3967 9.51032 34.5722 11.469 36.531C13.4278 38.4897 16.6033 38.4897 18.562 36.531Z" fill="#F7D291"/>
<path d="M23.3227 31.7699L16.2295 24.6769L23.3227 17.584L30.4156 24.6769L23.3227 31.7699Z" fill="#F0C382"/>
<path d="M30.0876 20.5348L27.4652 17.9123C26.9362 17.3834 26.0783 17.3834 25.5492 17.9123L17.9123 25.5492C17.3834 26.0783 17.3834 26.9362 17.9123 27.4652L20.5348 30.0876C21.0637 30.6165 21.9216 30.6165 22.4508 30.0876L30.0876 22.4508C30.6165 21.9216 30.6165 21.0637 30.0876 20.5348Z" fill="#F0C382"/>
<path d="M24.5999 18.8616L17.9124 25.5491C17.7669 25.6945 17.6623 25.8627 17.5967 26.0442L21.9555 30.403C22.137 30.3377 22.3052 30.233 22.4509 30.0873L29.1383 23.3998L24.5999 18.8616Z" fill="#E3AA75"/>
<path d="M36.531 29.438L18.562 11.469C16.6033 9.51032 13.4278 9.51032 11.469 11.469C9.51032 13.4278 9.51032 16.6033 11.469 18.562L29.438 36.531C31.3967 38.4897 34.5722 38.4897 36.531 36.531C38.4897 34.5722 38.4897 31.3967 36.531 29.438Z" fill="#F7D291"/>
<path d="M27.4652 30.0876L30.0876 27.4652C30.6165 26.9362 30.6165 26.0783 30.0876 25.5492L22.4508 17.9123C21.9216 17.3834 21.0637 17.3834 20.5348 17.9123L17.9123 20.5348C17.3834 21.0637 17.3834 21.9216 17.9123 22.4508L25.5492 30.0876C26.0783 30.6165 26.9362 30.6165 27.4652 30.0876Z" fill="#F0C382"/>
<path d="M23.9987 24.4496C23.7697 24.4496 23.574 24.2781 23.5505 24.0453L23.5501 24.0408C23.5253 23.7925 23.7063 23.571 23.9545 23.5464C24.2089 23.5266 24.4243 23.703 24.4491 23.9508C24.4736 24.1991 24.2929 24.4227 24.0444 24.4475C24.0291 24.4488 24.0141 24.4496 23.9987 24.4496Z" fill="#F7D291"/>
<path d="M21.7409 22.1903C21.5119 22.1903 21.3162 22.0186 21.2927 21.7857L21.2923 21.7815C21.2675 21.533 21.4485 21.3117 21.6967 21.2869C21.9494 21.2654 22.1665 21.4431 22.191 21.6915C22.2158 21.9398 22.0349 22.1634 21.7866 22.188C21.7713 22.1893 21.7563 22.1903 21.7409 22.1903Z" fill="#F7D291"/>
<path d="M19.4826 22.1903C19.2538 22.1903 19.0579 22.0186 19.0344 21.7857L19.034 21.7815C19.0094 21.533 19.1901 21.3117 19.4386 21.2869C19.6926 21.2654 19.9081 21.4431 19.9329 21.6915C19.9575 21.9398 19.7767 22.1634 19.5285 22.188C19.5131 22.1893 19.498 22.1903 19.4826 22.1903Z" fill="#F7D291"/>
<path d="M26.257 26.7112C26.0282 26.7112 25.8323 26.5397 25.8088 26.3068L25.8084 26.3023C25.7838 26.0541 25.9645 25.8326 26.213 25.808C26.4657 25.7894 26.6825 25.9646 26.7073 26.2124C26.7321 26.4606 26.5512 26.6843 26.3029 26.7091C26.2875 26.7103 26.2724 26.7112 26.257 26.7112Z" fill="#F7D291"/>
<path d="M28.5146 26.7112C28.2858 26.7112 28.0899 26.5397 28.0667 26.3068L28.0662 26.3023C28.0415 26.0541 28.2224 25.8326 28.4706 25.808C28.7221 25.7894 28.9404 25.9646 28.965 26.2124C28.9897 26.4606 28.8088 26.6843 28.5606 26.7091C28.5452 26.7103 28.5302 26.7112 28.5146 26.7112Z" fill="#F7D291"/>
<path d="M23.9987 26.7074C23.7697 26.7074 23.574 26.5359 23.5505 26.303L23.5501 26.2985C23.5253 26.0503 23.7063 25.8288 23.9545 25.8042C24.2089 25.783 24.4243 25.9608 24.4491 26.2086C24.4736 26.4568 24.2929 26.6805 24.0444 26.7053C24.0291 26.7065 24.0141 26.7074 23.9987 26.7074Z" fill="#F7D291"/>
<path d="M23.9987 22.1954C23.7697 22.1954 23.574 22.0238 23.5505 21.791L23.5501 21.7865C23.5253 21.5383 23.7063 21.3167 23.9545 21.2922C24.2089 21.2732 24.4243 21.4488 24.4491 21.6966C24.4736 21.9448 24.2929 22.1685 24.0444 22.1932C24.0291 22.1945 24.0141 22.1954 23.9987 22.1954Z" fill="#F7D291"/>
<path d="M21.7414 19.938C21.5124 19.938 21.3167 19.7665 21.2932 19.5337L21.2928 19.5292C21.268 19.2809 21.449 19.0594 21.6972 19.0348C21.9495 19.0141 22.1669 19.1914 22.1915 19.4392C22.2163 19.6875 22.0354 19.9111 21.7871 19.9359C21.7717 19.9372 21.7568 19.938 21.7414 19.938Z" fill="#F7D291"/>
<path d="M26.257 24.4496C26.0282 24.4496 25.8323 24.2781 25.8088 24.0453L25.8084 24.0408C25.7838 23.7925 25.9645 23.571 26.213 23.5464C26.4657 23.5266 26.6825 23.703 26.7073 23.9508C26.7321 24.1991 26.5512 24.4227 26.3029 24.4475C26.2875 24.4488 26.2724 24.4496 26.257 24.4496Z" fill="#F7D291"/>
<path d="M26.257 28.9692C26.0282 28.9692 25.8323 28.7977 25.8088 28.5648L25.8084 28.5604C25.7838 28.3121 25.9645 28.0906 26.213 28.066C26.4657 28.0457 26.6825 28.2226 26.7073 28.4704C26.7321 28.7187 26.5512 28.9423 26.3029 28.9671C26.2875 28.9684 26.2724 28.9692 26.257 28.9692Z" fill="#F7D291"/>
<path d="M21.7414 24.4496C21.5124 24.4496 21.3167 24.2781 21.2932 24.0453L21.2928 24.0408C21.268 23.7925 21.449 23.571 21.6972 23.5464C21.9495 23.5266 22.1669 23.703 22.1915 23.9508C22.2163 24.1991 22.0354 24.4227 21.7871 24.4475C21.7717 24.4488 21.7568 24.4496 21.7414 24.4496Z" fill="#F7D291"/>
<path d="M28.0787 29.4747C27.5495 30.0039 26.6918 30.0039 26.1627 29.4747L18.5259 21.8379C17.9967 21.3087 17.9967 20.451 18.5259 19.9219L17.9123 20.5352C17.3834 21.0643 17.3834 21.9222 17.9123 22.4514L25.5492 30.0882C26.0783 30.6172 26.9362 30.6172 27.4652 30.0882L28.0787 29.4747Z" fill="#E3AA75"/>
</svg>
