<svg width="48" height="48" viewBox="0 0 48 48" fill="none" xmlns="http://www.w3.org/2000/svg">
<rect width="48" height="48" rx="24" fill="url(#paint0_linear_0_1825)"/>
<path d="M24.3033 10.1071C26.324 11.666 31.3226 16.5016 30.1567 25.5167C30.1567 25.5167 31.4591 24.7602 32.6171 23.3602C32.8845 23.0372 33.4214 23.1613 33.512 23.5666C33.7133 24.4681 33.9572 25.9118 33.9976 27.7379C34.1197 33.2552 29.6514 37.9903 23.9829 38C18.4863 38.0094 14 33.6346 14 28.2629C14 23.6083 16.3144 21.1787 17.2057 17.1746C17.279 16.8447 17.6682 16.6867 17.9662 16.8593C18.6425 17.2507 19.7118 17.9838 20.4114 19.0255C20.4114 19.0255 23.2561 15.5173 23.4788 10.4841C23.4968 10.0773 23.9756 9.85409 24.3033 10.1071Z" fill="#FFAA5F"/>
<path d="M29.4019 28.2157C28.6037 29.3821 27.592 29.6472 27.592 29.6472C28.0015 24.8622 26.1217 21.3509 25.3475 20.1305C25.238 19.9576 24.9659 20.0032 24.9217 20.2019C24.2138 23.3986 22.3133 25.1739 22.3133 25.1739C21.6949 24.4718 21.107 24.1842 20.8012 24.0731C20.681 24.0296 20.5525 24.0939 20.5078 24.2109C19.7271 26.2492 18.2516 27.8227 17.9159 30.1658C17.4218 33.6134 19.995 36.8811 23.5621 37.1223C27.1601 37.3656 30.1564 34.596 30.1564 31.1453C30.1564 29.7571 29.9669 28.8036 29.8219 28.2777C29.7697 28.0878 29.5137 28.0523 29.4019 28.2157Z" fill="#FFE17D"/>
<path d="M24.1497 27.6846C24.0756 27.5032 23.8387 27.4533 23.7037 27.5976C22.897 28.46 20.729 30.9842 20.729 33.2069C20.729 34.9663 22.1942 36.3928 24.0017 36.3928C25.809 36.3928 27.2742 34.9663 27.2742 33.2069C27.2742 31.5341 25.1614 30.1625 24.1497 27.6846Z" fill="white"/>
<path d="M23.8976 37.9959C22.831 37.9181 13.658 36.2528 16.8209 25.0177C18.0012 20.8256 18.2079 17.005 18.2079 17.005C18.1236 16.953 18.0418 16.9035 17.9662 16.8598C17.6682 16.6872 17.279 16.8451 17.2057 17.175C16.3144 21.1789 14 23.6087 14 28.2634C14 33.6069 18.4222 37.9413 23.8976 37.9959Z" fill="#FF8C5A"/>
<defs>
<linearGradient id="paint0_linear_0_1825" x1="24" y1="0" x2="30.9133" y2="42.3445" gradientUnits="userSpaceOnUse">
<stop stop-color="#FE2424"/>
<stop offset="0.505208" stop-color="#E93E3A"/>
<stop offset="1" stop-color="#FB8A00"/>
</linearGradient>
</defs>
</svg>
